<?xml version="1.0" encoding="UTF-8"?>
<!DOCTYPE svg PUBLIC "-//W3C//DTD SVG 1.1//EN" "http://www.w3.org/Graphics/SVG/1.1/DTD/svg11.dtd">
<svg xmlns="http://www.w3.org/2000/svg" version="1.1" width="68px" height="68px" style="shape-rendering:geometricPrecision; text-rendering:geometricPrecision; image-rendering:optimizeQuality; fill-rule:evenodd; clip-rule:evenodd" xmlns:xlink="http://www.w3.org/1999/xlink">
<g><path style="opacity:1" fill="#ed201e" d="M 50.5,10.5 C 49.8333,10.8333 49.1667,11.1667 48.5,11.5C 46.8007,11.5271 45.4674,12.1938 44.5,13.5C 43.522,15.4561 42.522,17.4561 41.5,19.5C 40.8688,21.4478 39.8688,23.2811 38.5,25C 35.1667,25.3333 31.8333,25.6667 28.5,26C 25.9612,27.7209 23.6278,29.5542 21.5,31.5C 15.828,31.2401 10.1613,30.9068 4.5,30.5C 5.27399,25.6342 6.60732,20.9675 8.5,16.5C 12.9582,11.733 18.2915,8.06635 24.5,5.5C 30.5,4.16667 36.5,4.16667 42.5,5.5C 45.7629,6.47076 48.4295,8.13742 50.5,10.5 Z"/></g>
<g><path style="opacity:1" fill="#5869c3" d="M 50.5,10.5 C 51.4916,10.3284 52.1583,10.6618 52.5,11.5C 52.38,12.5862 51.7133,13.2528 50.5,13.5C 49.2867,13.2528 48.62,12.5862 48.5,11.5C 49.1667,11.1667 49.8333,10.8333 50.5,10.5 Z"/></g>
<g><path style="opacity:1" fill="#000000" d="M 8.5,16.5 C 7.83333,15.1667 7.83333,15.1667 8.5,16.5 Z"/></g>
<g><path style="opacity:1" fill="#e78f76" d="M 44.5,13.5 C 45.1495,15.4352 45.4828,17.4352 45.5,19.5C 44.1667,19.5 42.8333,19.5 41.5,19.5C 42.522,17.4561 43.522,15.4561 44.5,13.5 Z"/></g>
<g><path style="opacity:1" fill="#1060dd" d="M 56.5,16.5 C 59.598,18.1205 61.2646,20.7871 61.5,24.5C 65.0136,38.9741 60.6803,50.3074 48.5,58.5C 45.6734,53.4247 42.6734,48.4247 39.5,43.5C 41.0193,39.3908 41.8527,35.0575 42,30.5C 47.3886,26.3927 52.2219,21.726 56.5,16.5 Z"/></g>
<g><path style="opacity:1" fill="#eee5d5" d="M 48.5,11.5 C 48.62,12.5862 49.2867,13.2528 50.5,13.5C 51.7133,13.2528 52.38,12.5862 52.5,11.5C 54.5869,12.5846 55.9202,14.2512 56.5,16.5C 52.2219,21.726 47.3886,26.3927 42,30.5C 41.8527,35.0575 41.0193,39.3908 39.5,43.5C 28.0382,48.0679 22.0382,44.0679 21.5,31.5C 23.6278,29.5542 25.9612,27.7209 28.5,26C 31.8333,25.6667 35.1667,25.3333 38.5,25C 39.8688,23.2811 40.8688,21.4478 41.5,19.5C 42.8333,19.5 44.1667,19.5 45.5,19.5C 45.4828,17.4352 45.1495,15.4352 44.5,13.5C 45.4674,12.1938 46.8007,11.5271 48.5,11.5 Z"/></g>
<g><path style="opacity:1" fill="#10ba52" d="M 4.5,30.5 C 10.1613,30.9068 15.828,31.2401 21.5,31.5C 22.0382,44.0679 28.0382,48.0679 39.5,43.5C 42.6734,48.4247 45.6734,53.4247 48.5,58.5C 46.8839,59.9892 44.8839,60.9892 42.5,61.5C 24.905,65.208 12.5716,58.8747 5.5,42.5C 4.50909,38.5546 4.17575,34.5546 4.5,30.5 Z"/></g>
<g><path style="opacity:1" fill="#8d8987" d="M 30.5,31.5 C 32.9294,31.8844 35.2627,32.551 37.5,33.5C 37.7564,35.7925 37.4231,37.9592 36.5,40C 27.1711,42.1236 25.1711,39.2903 30.5,31.5 Z"/></g>
</svg>
